<?xml version="1.0" standalone="no"?>
<!DOCTYPE svg PUBLIC "-//W3C//DTD SVG 20010904//EN"
 "http://www.w3.org/TR/2001/REC-SVG-20010904/DTD/svg10.dtd">
<svg version="1.0" xmlns="http://www.w3.org/2000/svg"
 width="2560.000000pt" height="1291.000000pt" viewBox="0 0 2560.000000 1291.000000"
 preserveAspectRatio="xMidYMid meet">

<g transform="translate(0.000000,1291.000000) scale(0.100000,-0.100000)"
fill="#000000" stroke="none">
<path d="M18107 10433 c-4 -3 -7 -1763 -7 -3910 l0 -3903 919 0 919 0 21 88
c12 48 40 157 63 244 l40 156 97 -100 c305 -318 591 -452 1046 -488 440 -35
819 92 1113 374 267 255 346 488 382 1116 12 224 13 2876 0 3189 -14 342 -31
438 -106 596 -167 354 -459 553 -934 637 -102 18 -507 17 -620 -1 -376 -60
-604 -171 -861 -418 l-119 -115 0 1271 0 1271 -973 0 c-536 0 -977 -3 -980 -7z
m2404 -3143 c76 -23 141 -66 165 -111 31 -60 54 -210 65 -424 14 -276 6 -2429
-10 -2635 -22 -286 -32 -329 -88 -382 -88 -84 -310 -114 -414 -57 -91 50 -125
128 -150 344 -16 134 -24 2241 -10 2650 14 408 29 505 89 568 71 76 195 92
353 47z"/>
<path d="M5790 6460 l0 -3910 890 0 890 0 1 1678 c1 922 5 2066 8 2542 l6 865
359 -2475 c197 -1361 363 -2505 369 -2543 l9 -67 636 2 636 3 351 2605 350
2605 6 -2065 c3 -1136 7 -2309 8 -2607 l1 -543 885 0 885 0 0 3910 0 3910
-1325 0 -1325 0 -5 -22 c-3 -13 -106 -813 -230 -1778 -124 -965 -228 -1773
-232 -1795 -7 -43 -15 14 -222 1435 -55 382 -121 841 -145 1020 -25 179 -73
508 -108 733 l-62 407 -1318 0 -1318 0 0 -3910z"/>
<path d="M12800 6460 l0 -3910 1293 0 c1269 0 1519 5 1912 35 226 18 345 37
480 77 184 54 420 184 538 296 91 87 193 244 248 384 54 137 96 376 119 683
21 277 30 892 29 2225 0 2510 -19 2834 -190 3199 -93 200 -279 422 -450 538
-204 139 -477 241 -784 292 -431 72 -885 91 -2252 91 l-943 0 0 -3910z m2342
2545 c178 -37 267 -125 298 -293 6 -35 15 -147 20 -250 13 -264 13 -3545 0
-3807 -16 -315 -45 -495 -95 -581 -58 -100 -200 -157 -430 -171 l-105 -6 0
2568 0 2568 123 -7 c67 -3 152 -13 189 -21z"/>
<path d="M3090 6410 l0 -3910 1015 0 1015 0 0 3910 0 3910 -1015 0 -1015 0 0
-3910z"/>
</g>
</svg>
